<?xml version="1.0" encoding="iso-8859-1"?>
<!-- Generator: Adobe Illustrator 19.0.0, SVG Export Plug-In . SVG Version: 6.00 Build 0)  -->
<svg version="1.1" id="Capa_1" xmlns="http://www.w3.org/2000/svg" xmlns:xlink="http://www.w3.org/1999/xlink" x="0px" y="0px"
	 viewBox="0 0 480 480" style="enable-background:new 0 0 480 480;" xml:space="preserve">
<g>
	<g>
		<g>
			<path d="M272,240H64c-4.418,0-8,3.582-8,8v128c0,4.418,3.582,8,8,8h208c4.418,0,8-3.582,8-8V248C280,243.582,276.418,240,272,240
				z M264,368H72V256h192V368z"/>
			<path d="M466.984,217.752c-7.989-4.142-17.628-3.444-24.936,1.808l-76.544,54.68c-1.479-1.426-3.45-2.228-5.504-2.24h-24v-48
				c-0.026-22.08-17.92-39.974-40-40h-16v-24c0-4.418-3.582-8-8-8h-48H112H64c-4.418,0-8,3.582-8,8v24H40
				c-22.08,0.026-39.974,17.92-40,40v176c0.026,22.08,17.92,39.974,40,40h256c22.08-0.026,39.974-17.92,40-40v-48h24
				c2.054-0.012,4.025-0.814,5.504-2.24l76.544,54.68c10.785,7.705,25.774,5.209,33.48-5.576c2.908-4.071,4.472-8.949,4.472-13.952
				V239.088C480.019,230.094,474.99,221.85,466.984,217.752z M72,168h192v16H72V168z M320,400c0,13.255-10.745,24-24,24H40
				c-13.255,0-24-10.745-24-24V224c0-13.255,10.745-24,24-24h256c13.255,0,24,10.745,24,24V400z M352,336h-16v-48h16V336z
				 M464,384.912c-0.001,4.418-3.583,7.999-8.001,7.998c-1.669,0-3.297-0.523-4.655-1.495L368,331.88v-39.76l83.344-59.536
				c3.593-2.571,8.59-1.743,11.161,1.849c0.972,1.358,1.494,2.985,1.495,4.655V384.912z"/>
			<path d="M168,96c0-30.928-25.072-56-56-56c-30.928,0-56,25.072-56,56c0,30.928,25.072,56,56,56
				C142.913,151.965,167.965,126.913,168,96z M112,136c-22.091,0-40-17.909-40-40s17.909-40,40-40s40,17.909,40,40
				C151.974,118.08,134.08,135.974,112,136z"/>
			<path d="M224,152c30.928,0,56-25.072,56-56c0-30.928-25.072-56-56-56c-30.928,0-56,25.072-56,56
				C168.035,126.913,193.087,151.965,224,152z M224,56c22.091,0,40,17.909,40,40s-17.909,40-40,40c-22.091,0-40-17.909-40-40
				C184.026,73.92,201.92,56.026,224,56z"/>
		</g>
	</g>
</g>
<g>
</g>
<g>
</g>
<g>
</g>
<g>
</g>
<g>
</g>
<g>
</g>
<g>
</g>
<g>
</g>
<g>
</g>
<g>
</g>
<g>
</g>
<g>
</g>
<g>
</g>
<g>
</g>
<g>
</g>
</svg>
