<?xml version="1.0" encoding="iso-8859-1"?>
<!-- Generator: Adobe Illustrator 19.0.0, SVG Export Plug-In . SVG Version: 6.00 Build 0)  -->
<svg version="1.1" id="Capa_1" xmlns="http://www.w3.org/2000/svg" xmlns:xlink="http://www.w3.org/1999/xlink" x="0px" y="0px"
	 viewBox="0 0 496.941 496.941" style="enable-background:new 0 0 496.941 496.941;" xml:space="preserve">
<g>
	<g>
		<g>
			<path d="M195.77,415.624c3.012-6.024,6.023-12.047,7.529-18.824l15.812-2.259c3.765-0.753,6.776-3.765,6.776-7.529v-20.329
				c0-3.765-3.012-6.776-6.776-7.529l-15.812-0.753c-1.506-6.776-4.518-12.8-7.529-18.823l9.788-12.8
				c2.259-3.012,2.259-7.529-0.753-10.541l-13.553-13.553c-3.012-3.012-6.776-3.012-9.788-0.753l-12.8,9.788
				c-6.023-3.012-12.047-6.024-18.071-7.529l-2.259-15.812c-0.753-3.765-3.765-6.776-7.529-6.776h-20.329
				c-3.765,0-6.776,3.012-7.529,6.776l-2.259,15.812c-6.776,1.506-12.8,4.518-18.071,7.529l-12.8-9.788
				c-3.012-2.259-7.529-2.259-9.788,0.753l-14.306,14.306c-3.012,3.012-3.012,6.776-0.753,9.788l9.788,12.8
				c-3.012,6.023-6.024,12.047-7.529,18.823l-15.812,2.259c-3.765,0.753-6.776,3.765-6.776,7.529v20.329
				c0,3.765,3.012,6.776,6.776,7.529l15.812,2.259c1.506,6.776,4.518,12.8,7.529,18.824l-9.788,12.8
				c-2.259,3.012-2.259,7.529,0.753,9.788l14.306,14.306c3.012,3.012,6.776,3.012,9.788,0.753l12.8-9.788
				c6.023,3.012,12.047,6.023,18.071,7.529l2.259,15.812c0.753,3.765,3.765,6.776,7.529,6.776h19.576
				c3.765,0,6.776-3.012,7.529-6.776l2.259-15.812c6.776-1.506,12.8-4.518,18.071-7.529l12.047,9.788
				c3.012,2.259,7.529,2.259,10.541-0.753l13.553-13.553c3.012-3.012,3.012-6.776,0.753-9.788L195.77,415.624z M189.746,389.271
				c-1.506,8.282-4.518,15.812-9.035,22.588c-1.506,3.012-1.506,6.023,0,9.035l9.035,12.047l-4.518,4.518l-12.047-9.035
				c-2.259-2.259-6.023-2.259-9.035,0c-6.776,4.518-14.306,7.529-22.588,9.788c-3.012,0.753-5.271,3.012-6.023,6.776l-2.259,14.306
				h-6.776l-1.506-15.059c-0.753-3.012-3.012-6.023-6.023-6.776c-8.282-1.506-15.812-4.518-22.588-9.788
				c-3.012-1.506-6.023-1.506-9.035,0l-11.294,9.035l-4.518-4.518l9.035-11.294c2.259-2.259,2.259-6.776,0-9.035
				c-4.518-6.776-7.529-14.306-9.035-22.588c-0.753-3.012-3.012-5.271-6.024-6.023l-14.306-2.259v-6.776l14.306-2.259
				c3.012-0.753,6.024-3.012,6.024-6.023c1.506-8.282,4.518-15.812,9.035-22.588c1.506-3.012,1.506-6.023,0-9.035l-9.035-12.047
				l4.518-4.518l11.294,9.035c2.259,2.259,6.776,2.259,9.035,0c6.776-4.518,14.306-7.529,22.588-9.035
				c3.012-0.753,5.271-3.012,6.023-6.776l2.259-14.306h6.776l2.259,14.306c0.753,3.012,3.012,6.023,6.023,6.776
				c8.282,1.506,15.812,4.518,22.588,9.788c3.012,1.506,6.023,1.506,9.035,0l11.294-9.035l4.518,4.518l-9.035,12.047
				c-2.259,2.259-2.259,6.023,0,9.035c4.518,6.776,7.529,14.306,9.035,22.588c0.753,3.012,3.012,5.271,6.024,6.023l14.306,2.259
				v6.776L195.77,384C192.758,383.247,190.499,386.259,189.746,389.271z"/>
			<path d="M130.264,335.059c-23.341,0-42.165,19.576-42.165,42.918s18.823,42.918,42.165,42.918s42.918-19.576,42.918-42.918
				C173.181,353.882,153.605,335.059,130.264,335.059z M130.264,405.835c-15.059,0-27.106-12.8-27.106-27.859
				c0-15.059,12.047-27.859,27.106-27.859c15.059,0,27.859,12.8,27.859,27.859C158.123,393.035,145.323,405.835,130.264,405.835z"/>
			<path d="M483.393,153.6c-14.306-12.8-35.388-12.8-50.447,0v-6.776c0-1.506-0.753-3.765-2.259-5.271L298.17,2.259
				C296.664,0.753,294.405,0,292.899,0H7.534C3.017,0,0.005,3.012,0.005,7.529v481.882c0,4.518,3.012,7.529,7.529,7.529h417.882
				c4.518,0,7.529-3.012,7.529-7.529v-217.6l54.212-64C501.464,192,499.958,167.906,483.393,153.6z M300.428,26.353l107.671,112.941
				H300.428V26.353z M417.887,481.882H15.064V15.059h269.553v131.765c0,4.518,3.012,7.529,7.529,7.529h125.741v15.812
				l-14.306,16.565l-153.6,180.706l-1.506,2.259l-39.153,93.365c-1.506,3.012-0.753,6.776,2.259,8.282
				c2.259,2.259,6.023,2.259,9.035,0.753l85.835-52.706l1.506-1.506l109.929-128V481.882z M258.264,384.753l31.624,27.106
				l-57.224,35.388L258.264,384.753z M301.934,402.824l-36.141-30.871l143.812-168.659l36.141,30.871L301.934,402.824z
				 M475.864,198.776l-20.329,23.341l-36.141-30.871l20.329-24.094c8.282-9.788,23.341-10.541,33.129-2.259
				C483.393,173.929,484.899,188.988,475.864,198.776z"/>
			<path d="M56.475,73.788h64c4.518,0,7.529-3.012,7.529-7.529c0-4.518-3.012-7.529-7.529-7.529h-64
				c-4.518,0-7.529,3.012-7.529,7.529C48.946,70.776,51.958,73.788,56.475,73.788z"/>
			<path d="M56.475,129.506h64c4.518,0,7.529-3.012,7.529-7.529c0-4.518-3.012-7.529-7.529-7.529h-64
				c-4.518,0-7.529,3.012-7.529,7.529C48.946,126.494,51.958,129.506,56.475,129.506z"/>
			<path d="M176.946,73.788h64c4.518,0,7.529-3.012,7.529-7.529c0-4.518-3.012-7.529-7.529-7.529h-64
				c-4.518,0-7.529,3.012-7.529,7.529C169.417,70.776,172.428,73.788,176.946,73.788z"/>
			<path d="M176.946,129.506h64c4.518,0,7.529-3.012,7.529-7.529c0-4.518-3.012-7.529-7.529-7.529h-64
				c-4.518,0-7.529,3.012-7.529,7.529C169.417,126.494,172.428,129.506,176.946,129.506z"/>
			<path d="M56.475,185.224h252.235c4.518,0,7.529-3.012,7.529-7.529c0-4.518-3.012-7.529-7.529-7.529H56.475
				c-4.518,0-7.529,3.012-7.529,7.529C48.946,182.212,51.958,185.224,56.475,185.224z"/>
			<path d="M56.475,240.188h252.235c4.518,0,7.529-3.012,7.529-7.529s-3.012-7.529-7.529-7.529H56.475
				c-4.518,0-7.529,3.012-7.529,7.529S51.958,240.188,56.475,240.188z"/>
		</g>
	</g>
</g>
<g>
</g>
<g>
</g>
<g>
</g>
<g>
</g>
<g>
</g>
<g>
</g>
<g>
</g>
<g>
</g>
<g>
</g>
<g>
</g>
<g>
</g>
<g>
</g>
<g>
</g>
<g>
</g>
<g>
</g>
</svg>
