<?xml version="1.0" encoding="iso-8859-1"?>
<!-- Generator: Adobe Illustrator 19.0.0, SVG Export Plug-In . SVG Version: 6.00 Build 0)  -->
<svg version="1.1" id="Capa_1" xmlns="http://www.w3.org/2000/svg" xmlns:xlink="http://www.w3.org/1999/xlink" x="0px" y="0px"
	 viewBox="0 0 480.001 480.001" style="enable-background:new 0 0 480.001 480.001;" xml:space="preserve">
<g>
	<g>
		<path d="M472.688,191.313c-9.751-9.751-25.561-9.751-35.312,0L432,196.689l-11.312,11.312L384,244.689V48.001
			c-0.026-22.08-17.92-39.974-40-40H40c-22.08,0.026-39.974,17.92-40,40v128h64v296h320V315.313l72-72l11.312-11.312l5.376-5.376
			C482.439,216.874,482.439,201.064,472.688,191.313z M64,160.001H16v-112c0-13.255,10.745-24,24-24s24,10.745,24,24V160.001z
			 M368,456.001H80v-408c-0.029-8.684-2.914-17.117-8.208-24H344c13.255,0,24,10.745,24,24v212.688l-27.312,27.312H96v16h228.688
			l-16,16H96v16h196.688l-10.344,10.344l-5.656,5.656l-10.344,10.344c-0.765,0.766-1.368,1.677-1.776,2.68l-16,40
			c-1.642,4.102,0.352,8.758,4.454,10.4c1.908,0.764,4.037,0.764,5.946,0l40-16c1.003-0.408,1.914-1.011,2.68-1.776L312,387.313
			l5.656-5.656L368,331.313V456.001z M300.688,376.001l-9.184,9.184l-21.104,8.456l8.456-21.144l9.144-9.184L300.688,376.001z
			 M312,364.689l-12.688-12.688L432,219.313l12.688,12.688L312,364.689z M461.376,215.313L456,220.689l-12.688-12.688l5.376-5.376
			c3.504-3.504,9.184-3.504,12.688,0C464.88,206.128,464.88,211.809,461.376,215.313z"/>
	</g>
</g>
<g>
	<g>
		<rect x="96" y="64.001" width="80" height="16"/>
	</g>
</g>
<g>
	<g>
		<rect x="96" y="96.001" width="256" height="16"/>
	</g>
</g>
<g>
	<g>
		<rect x="96" y="128.001" width="256" height="16"/>
	</g>
</g>
<g>
	<g>
		<rect x="96" y="160.001" width="256" height="16"/>
	</g>
</g>
<g>
	<g>
		<rect x="96" y="192.001" width="256" height="16"/>
	</g>
</g>
<g>
	<g>
		<rect x="96" y="224.001" width="256" height="16"/>
	</g>
</g>
<g>
	<g>
		<rect x="96" y="256.001" width="256" height="16"/>
	</g>
</g>
<g>
	<g>
		<rect x="216" y="424.001" width="128" height="16"/>
	</g>
</g>
<g>
</g>
<g>
</g>
<g>
</g>
<g>
</g>
<g>
</g>
<g>
</g>
<g>
</g>
<g>
</g>
<g>
</g>
<g>
</g>
<g>
</g>
<g>
</g>
<g>
</g>
<g>
</g>
<g>
</g>
</svg>
