<?xml version="1.0" encoding="iso-8859-1"?>
<!-- Generator: Adobe Illustrator 19.0.0, SVG Export Plug-In . SVG Version: 6.00 Build 0)  -->
<svg version="1.1" id="Capa_1" xmlns="http://www.w3.org/2000/svg" xmlns:xlink="http://www.w3.org/1999/xlink" x="0px" y="0px"
	 viewBox="0 0 496 496" style="enable-background:new 0 0 496 496;" xml:space="preserve">
<g>
	<g>
		<path d="M416,106.904V48c0-26.472-21.528-48-48-48H48C21.528,0,0,21.528,0,48v64h80v80h16V48c0-12.304-4.688-23.496-12.32-32H368
			c17.648,0,32,14.352,32,32v56.408c-2.648-0.208-5.296-0.408-8-0.408c-57.344,0-104,46.656-104,104s46.656,104,104,104
			c2.704,0,5.352-0.2,8-0.408V376h16v-66.904c45.792-10.88,80-52.024,80-101.096S461.792,117.784,416,106.904z M80,96H16V48
			c0-17.648,14.352-32,32-32s32,14.352,32,32V96z M479.592,200h-39.936c-0.736-11.656-2.936-22.576-6.08-32.504
			c13.208-5.64,22.08-12.536,25.912-15.872C470.664,164.984,477.936,181.688,479.592,200z M448.12,140.28
			c-3.312,2.736-10.28,7.84-20.248,12.184c-5.448-12.44-11.832-22.752-17.368-30.472C424.576,125.016,437.416,131.392,448.12,140.28
			z M423.656,216c-0.712,9.736-2.64,18.912-5.312,27.352C410.472,241.336,401.704,240,392,240c-9.712,0-18.496,1.336-26.36,3.36
			c-2.664-8.432-4.576-17.616-5.288-27.36H423.656z M360.352,200c0.712-9.736,2.64-18.92,5.312-27.352
			C373.528,174.664,382.296,176,392,176c9.712,0,18.496-1.336,26.36-3.36c2.664,8.432,4.576,17.616,5.288,27.36H360.352z
			 M392.008,124.16c5.432,6.696,13.752,18.288,20.568,33.4c-6.224,1.472-13.08,2.44-20.576,2.44c-7.48,0-14.328-0.96-20.544-2.432
			C378.28,142.464,386.592,130.864,392.008,124.16z M373.496,121.992c-5.536,7.72-11.92,18.032-17.368,30.472
			c-9.96-4.344-16.928-9.448-20.248-12.184C346.584,131.392,359.424,125.016,373.496,121.992z M324.504,151.632
			c3.832,3.336,12.704,10.232,25.912,15.872c-3.144,9.928-5.344,20.848-6.08,32.504H304.4
			C306.064,181.688,313.336,164.984,324.504,151.632z M304.408,216h39.936c0.736,11.656,2.936,22.576,6.08,32.504
			c-13.208,5.64-22.08,12.536-25.912,15.872C313.336,251.016,306.064,234.312,304.408,216z M335.88,275.72
			c3.312-2.736,10.28-7.84,20.248-12.184c5.448,12.44,11.832,22.752,17.368,30.472C359.424,290.984,346.584,284.608,335.88,275.72z
			 M391.984,291.84c-5.432-6.696-13.752-18.288-20.568-33.4c6.232-1.472,13.088-2.44,20.584-2.44c7.48,0,14.328,0.96,20.544,2.432
			C405.72,273.536,397.408,285.136,391.984,291.84z M410.504,294.008c5.536-7.72,11.92-18.032,17.368-30.472
			c9.96,4.344,16.928,9.448,20.248,12.184C437.416,284.608,424.576,290.984,410.504,294.008z M459.496,264.368
			c-3.832-3.336-12.704-10.232-25.912-15.872c3.144-9.928,5.344-20.848,6.08-32.504H479.6
			C477.936,234.312,470.664,251.016,459.496,264.368z"/>
	</g>
</g>
<g>
	<g>
		<path d="M160,392v56c0,17.648-14.352,32-32,32s-32-14.352-32-32v-80H80v80c0,26.472,21.528,48,48,48h320c26.472,0,48-21.528,48-48
			v-56H160z M480,448c0,17.648-14.352,32-32,32H163.752C171.36,471.504,176,460.28,176,448v-40h304V448z"/>
	</g>
</g>
<g>
	<g>
		<path d="M232,240h-16c-29.824,0-58.688-8.744-83.504-25.28L112,201.056v157.888l20.496-13.664
			C157.312,328.744,186.176,320,216,320h16c13.232,0,24-10.768,24-24v-32C256,250.768,245.232,240,232,240z M208,304.272
			c-28.408,1.352-55.832,9.816-80,24.872v-98.296c24.168,15.056,51.592,23.52,80,24.872V304.272z M240,296c0,4.416-3.584,8-8,8h-8
			v-48h8c4.416,0,8,3.584,8,8V296z"/>
	</g>
</g>
<g>
	<g>
		<path d="M84.688,268.688l-11.312-11.312C67.328,263.424,64,271.456,64,280s3.328,16.576,9.376,22.624l11.312-11.312
			C81.664,288.288,80,284.272,80,280C80,275.728,81.664,271.712,84.688,268.688z"/>
	</g>
</g>
<g>
	<g>
		<path d="M62.064,246.064l-11.312-11.312C38.656,246.832,32,262.896,32,280s6.656,33.168,18.752,45.248l11.312-11.312
			C52.992,304.872,48,292.824,48,280C48,267.176,52.992,255.128,62.064,246.064z"/>
	</g>
</g>
<g>
	<g>
		<path d="M39.432,223.432L28.12,212.12C9.984,230.256,0,254.368,0,280c0,25.632,9.984,49.744,28.12,67.88l11.312-11.312
			C24.32,321.456,16,301.36,16,280S24.32,238.544,39.432,223.432z"/>
	</g>
</g>
<g>
	<g>
		<path d="M128,40v64h208V40H128z M320,88H144V56h176V88z"/>
	</g>
</g>
<g>
	<g>
		<rect x="128" y="120" width="152" height="16"/>
	</g>
</g>
<g>
	<g>
		<rect x="128" y="184" width="152" height="16"/>
	</g>
</g>
<g>
	<g>
		<rect x="128" y="152" width="64" height="16"/>
	</g>
</g>
<g>
	<g>
		<rect x="208" y="152" width="72" height="16"/>
	</g>
</g>
<g>
	<g>
		<rect x="256" y="360" width="128" height="16"/>
	</g>
</g>
<g>
	<g>
		<rect x="256" y="328" width="56" height="16"/>
	</g>
</g>
<g>
	<g>
		<rect x="328" y="328" width="56" height="16"/>
	</g>
</g>
<g>
</g>
<g>
</g>
<g>
</g>
<g>
</g>
<g>
</g>
<g>
</g>
<g>
</g>
<g>
</g>
<g>
</g>
<g>
</g>
<g>
</g>
<g>
</g>
<g>
</g>
<g>
</g>
<g>
</g>
</svg>
