<?xml version="1.0" encoding="iso-8859-1"?>
<!-- Generator: Adobe Illustrator 19.0.0, SVG Export Plug-In . SVG Version: 6.00 Build 0)  -->
<svg version="1.1" id="Layer_1" xmlns="http://www.w3.org/2000/svg" xmlns:xlink="http://www.w3.org/1999/xlink" x="0px" y="0px"
	 viewBox="0 0 511.999 511.999" style="enable-background:new 0 0 511.999 511.999;" xml:space="preserve">
<g>
	<g>
		<path d="M498.439,433.384l-95.992-95.993c-1.408-1.408-3.317-2.198-5.307-2.198s-3.898,0.79-5.306,2.198l-3.861,3.861
			l-26.288-26.288c55.466-77.803,48.335-186.82-21.423-256.579C302.613,20.735,252.555,0,199.312,0
			C146.067,0,96.01,20.735,58.361,58.384c-77.721,77.721-77.72,204.18,0,281.9c37.649,37.65,87.706,58.384,140.951,58.384
			c42.032,0,82.071-12.931,115.595-36.894l26.272,26.272l-3.861,3.861c-1.407,1.407-2.197,3.316-2.197,5.306
			c0,1.99,0.79,3.899,2.197,5.305l95.993,95.993c8.698,8.698,20.263,13.488,32.564,13.488c12.301,0,23.865-4.79,32.563-13.488
			c8.698-8.698,13.488-20.263,13.488-32.563C511.928,453.647,507.138,442.082,498.439,433.384z M311.052,345.906
			c-0.181,0.138-0.35,0.288-0.516,0.44c-31.854,24.204-70.529,37.316-111.226,37.316c-49.234-0.001-95.522-19.174-130.338-53.989
			c-71.868-71.869-71.868-188.808,0-260.677c34.815-34.815,81.103-53.989,130.34-53.989c49.235,0,95.523,19.173,130.338,53.988
			c65.859,65.859,71.354,169.559,16.51,241.748c-0.11,0.126-0.223,0.248-0.326,0.382c-4.993,6.528-10.455,12.769-16.235,18.548
			C323.822,335.451,317.581,340.912,311.052,345.906z M326.871,352.515c4.614-3.856,9.087-7.927,13.39-12.231
			c4.302-4.302,8.351-8.76,12.177-13.344l24.924,24.924l-25.571,25.571L326.871,352.515z M487.828,487.9
			C487.827,487.9,487.827,487.9,487.828,487.9c-12.106,12.106-31.801,12.105-43.904,0l-90.688-90.688l3.861-3.861l36.183-36.182
			c0.003-0.003,0.006-0.007,0.009-0.01l3.851-3.851l90.688,90.688c5.863,5.864,9.093,13.659,9.093,21.952
			C496.921,474.24,493.691,482.036,487.828,487.9z"/>
	</g>
</g>
<g>
	<g>
		<path d="M199.312,41.749c-50.152,0-97.66,24.294-127.083,64.988c-2.429,3.357-1.675,8.048,1.684,10.476
			c3.359,2.429,8.049,1.674,10.477-1.684C111,78.726,153.962,56.755,199.312,56.755c78.142,0,141.715,63.573,141.715,141.715
			c0,10.114-1.07,20.207-3.18,29.998c-0.872,4.051,1.704,8.043,5.755,8.916c0.533,0.115,1.065,0.17,1.589,0.17
			c3.459,0,6.569-2.406,7.327-5.924c2.333-10.829,3.517-21.985,3.517-33.16C356.034,112.054,285.729,41.749,199.312,41.749z"/>
	</g>
</g>
<g>
	<g>
		<path d="M341.129,245.624c-3.863-1.506-8.211,0.407-9.716,4.268c-7.17,18.407-18.009,34.924-31.836,48.74
			c-7.525-16.915-19.798-32.121-35.389-43.596c-10.109-7.44-21.39-13.122-33.187-16.867c14.616-10.096,24.218-26.957,24.218-46.025
			v-41.654c0-29.865-23.538-54.336-53.037-55.835c-0.951-0.049-1.909-0.073-2.872-0.073h-0.001c-1.258,0-2.502,0.057-3.74,0.139
			c-29.089,1.933-52.169,26.199-52.169,55.769v41.654c0,19.068,9.603,35.93,24.218,46.025c-11.797,3.746-23.078,9.428-33.187,16.868
			c-15.568,11.457-27.829,26.637-35.357,43.522c-25.618-25.655-41.482-61.053-41.482-100.086c0-21.631,4.744-42.392,14.101-61.705
			c1.807-3.729,0.248-8.217-3.481-10.025s-8.218-0.248-10.024,3.482c-10.353,21.369-15.602,44.332-15.602,68.248
			c0,47.119,20.905,89.445,53.924,118.199c0.22,0.247,0.452,0.485,0.707,0.704c12.334,10.6,26.157,19.127,40.92,25.384
			c0.087,0.037,0.173,0.076,0.26,0.113c0.349,0.147,0.701,0.286,1.052,0.43c13.253,5.498,27.417,9.224,42.198,10.89
			c0.118,0.013,0.235,0.027,0.353,0.04c0.948,0.105,1.899,0.2,2.852,0.287c0.334,0.031,0.669,0.06,1.003,0.089
			c0.81,0.069,1.623,0.134,2.437,0.191c0.507,0.036,1.016,0.066,1.524,0.097c0.684,0.041,1.369,0.083,2.055,0.115
			c0.705,0.034,1.412,0.057,2.118,0.081c0.519,0.017,1.037,0.04,1.558,0.052c1.253,0.03,2.506,0.048,3.761,0.048
			c1.776,0,3.548-0.04,5.318-0.1c0.384-0.013,0.769-0.023,1.154-0.039c1.569-0.066,3.134-0.155,4.696-0.266
			c0.653-0.046,1.306-0.1,1.957-0.153c1.037-0.087,2.073-0.186,3.107-0.294c1.33-0.136,2.654-0.293,3.977-0.463
			c0.404-0.053,0.808-0.105,1.212-0.161c21.392-2.918,41.847-10.208,60.328-21.539c0.359-0.22,0.718-0.439,1.076-0.661
			c0.84-0.524,1.681-1.05,2.513-1.593c1.083-0.703,2.156-1.424,3.223-2.154c0.293-0.201,0.594-0.389,0.886-0.592
			c0.339-0.236,0.665-0.487,1.003-0.725c0.945-0.668,1.884-1.348,2.815-2.038c0.701-0.519,1.395-1.046,2.086-1.576
			c0.761-0.584,1.518-1.175,2.269-1.773c0.713-0.568,1.424-1.14,2.126-1.719c0.787-0.65,1.571-1.305,2.346-1.971
			c0.013-0.011,0.023-0.024,0.036-0.036c19.507-16.739,34.57-37.906,43.957-62.001C346.902,251.478,344.991,247.128,341.129,245.624
			z M158.433,150.466c0-22.541,18.339-40.879,40.879-40.879s40.878,18.339,40.878,40.879v12.382
			c-17.161-4.279-24.23-21.953-24.551-22.779c-1.041-2.747-3.577-4.655-6.508-4.85c-2.919-0.191-5.694,1.318-7.088,3.903
			c-0.521,0.935-12.299,21.422-43.611,24.318V150.466z M169.138,333.19l5.212,4.771c-7.458-1.335-14.785-3.257-21.907-5.752
			c-0.016-0.006-0.032-0.011-0.048-0.017c-0.888-0.312-1.774-0.633-2.656-0.962c-0.162-0.061-0.323-0.123-0.485-0.185
			c-0.762-0.288-1.524-0.58-2.281-0.881c-0.764-0.305-1.526-0.616-2.283-0.934c-0.169-0.071-0.339-0.137-0.507-0.208
			c-12.025-5.097-23.2-11.816-33.264-19.869c9.97-26.334,32.844-47.203,59.96-56.275l8.878,17.248l-12.865,55.845
			C166.284,328.606,167.143,331.365,169.138,333.19z M158.41,192.142v-13.643c25.285-1.936,40.844-13.444,49.149-22.169
			c5.817,8.492,16.222,19.228,32.654,21.852v13.961c0,22.028-17.507,40.036-39.338,40.862c-0.487-0.013-0.974-0.036-1.461-0.043
			h-0.001c-0.069-0.001-0.136-0.001-0.205,0c-0.487,0.007-0.974,0.029-1.461,0.043C175.917,232.178,158.41,214.171,158.41,192.142z
			 M212.77,249.18l-6.408,12.451h-14.1l-6.408-12.451c0.773-0.127,1.549-0.251,2.327-0.358c0.141-0.019,0.281-0.042,0.421-0.06
			c0.957-0.127,1.919-0.232,2.882-0.329c0.245-0.024,0.49-0.056,0.735-0.078c0.904-0.084,1.811-0.146,2.719-0.203
			c0.282-0.018,0.565-0.044,0.847-0.059c0.719-0.039,1.441-0.054,2.162-0.076c0.454,0.011,0.906,0.035,1.363,0.035
			c0.457,0,0.908-0.024,1.363-0.035c0.721,0.022,1.443,0.037,2.162,0.076c0.282,0.015,0.564,0.042,0.846,0.059
			c0.908,0.057,1.816,0.119,2.72,0.203c0.244,0.023,0.488,0.054,0.733,0.078c0.963,0.097,1.926,0.202,2.884,0.329
			c0.14,0.018,0.279,0.041,0.419,0.06C211.22,248.929,211.995,249.053,212.77,249.18z M199.621,340.179
			c-0.095,0-0.189,0.005-0.284,0.005c-0.021,0-0.043,0-0.064,0c-0.09,0-0.18-0.003-0.27-0.003l-16.505-15.106l11.158-48.438h11.31
			l11.158,48.438L199.621,340.179z M285.135,311.24c-0.512,0.39-1.029,0.773-1.546,1.157c-0.809,0.599-1.626,1.19-2.449,1.773
			c-0.717,0.507-1.44,1.007-2.166,1.501c-0.613,0.417-1.23,0.827-1.848,1.235c-1.177,0.773-2.363,1.53-3.561,2.267
			c-0.256,0.158-0.512,0.316-0.769,0.472c-14.904,9.039-31.364,15.247-48.524,18.319l5.212-4.771
			c1.995-1.826,2.853-4.584,2.246-7.219l-12.865-55.846l8.877-17.247c27.14,9.077,50.028,29.97,59.987,56.334
			C286.872,309.896,286.009,310.574,285.135,311.24z"/>
	</g>
</g>
<g>
</g>
<g>
</g>
<g>
</g>
<g>
</g>
<g>
</g>
<g>
</g>
<g>
</g>
<g>
</g>
<g>
</g>
<g>
</g>
<g>
</g>
<g>
</g>
<g>
</g>
<g>
</g>
<g>
</g>
</svg>
